<?xml version="1.0" ?>

<!-- Uploaded to: SVG Repo, www.svgrepo.com, Generator: SVG Repo Mixer Tools -->
<svg fill="#000000" width="800px" height="800px" viewBox="0 0 400 400" id="Send" version="1.1" xml:space="preserve" xmlns="http://www.w3.org/2000/svg" xmlns:xlink="http://www.w3.org/1999/xlink">

<g id="XMLID_3_">

<polygon id="XMLID_4_" points="373.3,0 346.7,0 320,0 320,26.7 346.7,26.7 373.3,26.7 373.3,53.3 373.3,80 400,80 400,53.3    400,26.7 400,0  "/>

<polygon id="XMLID_299_" points="293.3,53.3 320,53.3 320,26.7 293.3,26.7 266.7,26.7 240,26.7 240,53.3 266.7,53.3  "/>

<polygon id="XMLID_300_" points="213.3,80 240,80 240,53.3 213.3,53.3 186.7,53.3 160,53.3 160,80 186.7,80  "/>

<polygon id="XMLID_301_" points="133.3,106.7 160,106.7 160,80 133.3,80 106.7,80 80,80 80,106.7 106.7,106.7  "/>

<polygon id="XMLID_302_" points="346.7,106.7 346.7,133.3 346.7,160 373.3,160 373.3,133.3 373.3,106.7 373.3,80 346.7,80  "/>

<polygon id="XMLID_313_" points="80,133.3 80,106.7 53.3,106.7 26.7,106.7 26.7,133.3 53.3,133.3  "/>

<rect height="26.7" id="XMLID_314_" width="26.7" x="0" y="133.3"/>

<polygon id="XMLID_315_" points="186.7,160 160,160 133.3,160 106.7,160 80,160 53.3,160 26.7,160 26.7,186.7 53.3,186.7 80,186.7    106.7,186.7 133.3,186.7 160,186.7 186.7,186.7 213.3,186.7 213.3,160  "/>

<polygon id="XMLID_316_" points="320,186.7 320,213.3 320,240 346.7,240 346.7,213.3 346.7,186.7 346.7,160 320,160  "/>

<polygon id="XMLID_317_" points="293.3,266.7 293.3,293.3 293.3,320 320,320 320,293.3 320,266.7 320,240 293.3,240  "/>

<polygon id="XMLID_318_" points="240,320 240,293.3 240,266.7 240,240 240,213.3 240,186.7 213.3,186.7 213.3,213.3 213.3,240    213.3,266.7 213.3,293.3 213.3,320 213.3,346.7 213.3,373.3 240,373.3 240,346.7  "/>

<polygon id="XMLID_319_" points="266.7,346.7 266.7,373.3 293.3,373.3 293.3,346.7 293.3,320 266.7,320  "/>

<rect height="26.7" id="XMLID_320_" width="26.7" x="240" y="373.3"/>

</g>

</svg>